<?xml version="1.0" encoding="UTF-8"?>
<svg enable-background="new 0 0 492 492" version="1.1" viewBox="0 0 492 492" xml:space="preserve" xmlns="http://www.w3.org/2000/svg">
		<path d="m487.91 115.34h-218.8v-76.512c0-1.48-0.952-2.82-2.276-3.456-1.324-0.64-2.952-0.464-4.116 0.448l-261.26 207.17c-0.916 0.728-1.464 1.836-1.464 3.008 0 1.176 0.528 2.284 1.444 3.012l261.22 207.16c0.7 0.548 1.54 0.832 2.392 0.832 0.568 0 1.248-0.124 1.78-0.38 1.324-0.64 2.276-1.988 2.276-3.464v-76.508h218.91c2.116 0 3.976-1.536 3.976-3.664v-253.46c0-2.124-1.968-4.188-4.088-4.188z"/>
</svg>